CrispyWide Thin-MaxGrade-shadow.ufo
<glyph name="exclam" format="2">
  <advance width="227"/>
  <unicode hex="0021"/>
  <outline>
    <contour>
      <point x="-8" y="-98" type="line"/>
      <point x="143" y="53" type="line"/>
      <point x="144" y="94" type="line"/>
      <point x="144" y="94" type="line"/>
      <point x="144" y="94" type="line"/>
      <point x="144" y="1602" type="line"/>
      <point x="127" y="1602" type="line"/>
      <point x="-24" y="1451" type="line"/>
      <point x="-25" y="1431" type="line"/>
      <point x="-25" y="1431" type="line"/>
      <point x="-25" y="1431" type="line"/>
      <point x="-25" y="-98" type="line"/>
    </contour>
    <contour>
      <point x="-21" y="-94" type="line"/>
      <point x="-21" y="1431" type="line"/>
      <point x="-20" y="1449" type="line"/>
      <point x="129" y="1598" type="line"/>
      <point x="140" y="1598" type="line"/>
      <point x="140" y="94" type="line"/>
      <point x="139" y="55" type="line"/>
      <point x="-10" y="-94" type="line"/>
    </contour>
    <contour>
      <point x="243" y="7" type="line"/>
      <point x="243" y="24" type="line"/>
      <point x="218" y="24" type="line"/>
      <point x="216" y="14" type="line"/>
      <point x="216" y="-2" type="line"/>
      <point x="241" y="-2" type="line"/>
    </contour>
    <contour>
      <point x="220" y="2" type="line"/>
      <point x="220" y="14" type="line"/>
      <point x="222" y="20" type="line"/>
      <point x="239" y="20" type="line"/>
      <point x="239" y="7" type="line"/>
      <point x="237" y="2" type="line"/>
    </contour>
    <component base="period" xOffset="95"/>
    <component base="period" xOffset="95"/>
    <component base="period" xOffset="95"/>
    <component base="period" xOffset="95"/>
  </outline>
</glyph>
<glyph name="comma" format="2">
  <advance width="306"/>
  <unicode hex="002C"/>
  <outline>
    <contour>
      <point x="247" y="18" type="line"/>
      <point x="232" y="18" type="line"/>
      <point x="81" y="-133" type="line"/>
      <point x="79" y="-140" type="line"/>
      <point x="79" y="-152" type="line"/>
      <point x="85" y="-152" type="line"/>
      <point x="85" y="-769" type="line"/>
      <point x="91" y="-769" type="line"/>
      <point x="242" y="-618" type="line"/>
      <point x="247" y="0" type="line"/>
      <point x="247" y="0" type="line"/>
      <point x="247" y="0" type="line"/>
    </contour>
    <contour>
      <point x="89" y="-148" type="line"/>
      <point x="83" y="-148" type="line"/>
      <point x="83" y="-140" type="line"/>
      <point x="85" y="-135" type="line"/>
      <point x="234" y="14" type="line"/>
      <point x="243" y="14" type="line"/>
      <point x="243" y="0" type="line"/>
      <point x="238" y="-616" type="line"/>
      <point x="89" y="-765" type="line"/>
      <point x="89" y="-765" type="line"/>
    </contour>
  </outline>
</glyph>
<glyph name="zero" format="2">
  <advance width="4175"/>
  <unicode hex="0030"/>
  <outline>
    <contour>
      <point x="225" y="1451" type="line"/>
      <point x="225" y="-152" type="line"/>
      <point x="3819" y="-152" type="line"/>
      <point x="3970" y="-1" type="line"/>
      <point x="3970" y="1602" type="line"/>
      <point x="376" y="1602" type="line"/>
    </contour>
    <contour>
      <point x="229" y="-148" type="line"/>
      <point x="229" y="1449" type="line"/>
      <point x="378" y="1598" type="line"/>
      <point x="3966" y="1598" type="line"/>
      <point x="3966" y="1" type="line"/>
      <point x="3817" y="-148" type="line"/>
    </contour>
    <contour>
      <point x="3806" y="13" type="line"/>
      <point x="3806" y="1437" type="line"/>
      <point x="389" y="1437" type="line"/>
      <point x="389" y="13" type="line"/>
    </contour>
    <contour>
      <point x="393" y="17" type="line"/>
      <point x="393" y="1433" type="line"/>
      <point x="3802" y="1433" type="line"/>
      <point x="3802" y="17" type="line"/>
    </contour>
  </outline>
</glyph>
<glyph name="one" format="2">
  <advance width="3770"/>
  <unicode hex="0031"/>
  <outline>
    <contour>
      <point x="3767" y="-1" type="line"/>
      <point x="3767" y="16" type="line"/>
      <point x="1980" y="16" type="line"/>
      <point x="1980" y="1602" type="line"/>
      <point x="201" y="1602" type="line"/>
      <point x="50" y="1451" type="line"/>
      <point x="50" y="1434" type="line"/>
      <point x="1812" y="1434" type="line"/>
      <point x="1812" y="16" type="line"/>
      <point x="174" y="16" type="line"/>
      <point x="23" y="-135" type="line"/>
      <point x="23" y="-152" type="line"/>
      <point x="3616" y="-152" type="line"/>
    </contour>
    <contour>
      <point x="1816" y="12" type="line"/>
      <point x="1816" y="1438" type="line"/>
      <point x="54" y="1438" type="line"/>
      <point x="54" y="1449" type="line"/>
      <point x="203" y="1598" type="line"/>
      <point x="1976" y="1598" type="line"/>
      <point x="1976" y="12" type="line"/>
      <point x="3763" y="12" type="line"/>
      <point x="3763" y="1" type="line"/>
      <point x="3614" y="-148" type="line"/>
      <point x="27" y="-148" type="line"/>
      <point x="27" y="-137" type="line"/>
      <point x="176" y="12" type="line"/>
    </contour>
  </outline>
</glyph>
<glyph name="eight" format="2">
  <advance width="3897"/>
  <unicode hex="0038"/>
  <outline>
    <contour>
      <point x="3837" y="-1" type="line"/>
      <point x="3837" y="525" type="line"/>
      <point x="3497" y="778" type="line"/>
      <point x="3683" y="910" type="line"/>
      <point x="3834" y="1061" type="line"/>
      <point x="3834" y="1602" type="line"/>
      <point x="234" y="1602" type="line"/>
      <point x="83" y="1451" type="line"/>
      <point x="83" y="911" type="line"/>
      <point x="422" y="669" type="line"/>
      <point x="231" y="526" type="line"/>
      <point x="80" y="375" type="line"/>
      <point x="80" y="-152" type="line"/>
      <point x="3686" y="-152" type="line"/>
    </contour>
    <contour>
      <point x="428" y="669" type="line"/>
      <point x="87" y="913" type="line"/>
      <point x="87" y="1449" type="line"/>
      <point x="236" y="1598" type="line"/>
      <point x="3830" y="1598" type="line"/>
      <point x="3830" y="1063" type="line"/>
      <point x="3681" y="914" type="line"/>
      <point x="3491" y="778" type="line"/>
      <point x="3833" y="523" type="line"/>
      <point x="3833" y="1" type="line"/>
      <point x="3684" y="-148" type="line"/>
      <point x="84" y="-148" type="line"/>
      <point x="84" y="373" type="line"/>
      <point x="233" y="522" type="line"/>
    </contour>
    <contour>
      <point x="615" y="804" type="line"/>
      <point x="3452" y="804" type="line"/>
      <point x="3669" y="960" type="line"/>
      <point x="3669" y="1439" type="line"/>
      <point x="247" y="1439" type="line"/>
      <point x="247" y="1067" type="line"/>
    </contour>
    <contour>
      <point x="617" y="808" type="line"/>
      <point x="251" y="1069" type="line"/>
      <point x="251" y="1435" type="line"/>
      <point x="3665" y="1435" type="line"/>
      <point x="3665" y="962" type="line"/>
      <point x="3450" y="808" type="line"/>
    </contour>
    <contour>
      <point x="3672" y="11" type="line"/>
      <point x="3672" y="369" type="line"/>
      <point x="3302" y="646" type="line"/>
      <point x="465" y="646" type="line"/>
      <point x="244" y="481" type="line"/>
      <point x="244" y="11" type="line"/>
    </contour>
    <contour>
      <point x="248" y="15" type="line"/>
      <point x="248" y="479" type="line"/>
      <point x="467" y="642" type="line"/>
      <point x="3300" y="642" type="line"/>
      <point x="3668" y="367" type="line"/>
      <point x="3668" y="15" type="line"/>
    </contour>
  </outline>
</glyph>
<glyph name="A" format="2">
  <advance width="3981"/>
  <unicode hex="0041"/>
  <outline>
    <contour>
      <point x="97" y="-152" type="line"/>
      <point x="248" y="-1" type="line"/>
      <point x="248" y="635" type="line"/>
      <point x="3608" y="635" type="line"/>
      <point x="3608" y="-152" type="line"/>
      <point x="3625" y="-152" type="line"/>
      <point x="3776" y="-1" type="line"/>
      <point x="3776" y="1602" type="line"/>
      <point x="712" y="1602" type="line"/>
      <point x="562" y="1451" type="line"/>
      <point x="562" y="1451" type="line"/>
      <point x="562" y="1451" type="line"/>
      <point x="80" y="967" type="line"/>
      <point x="80" y="-152" type="line"/>
    </contour>
    <contour>
      <point x="3612" y="639" type="line"/>
      <point x="244" y="639" type="line"/>
      <point x="244" y="1" type="line"/>
      <point x="95" y="-148" type="line"/>
      <point x="84" y="-148" type="line"/>
      <point x="84" y="965" type="line"/>
      <point x="564" y="1449" type="line"/>
      <point x="714" y="1598" type="line"/>
      <point x="3772" y="1598" type="line"/>
      <point x="3772" y="1" type="line"/>
      <point x="3623" y="-148" type="line"/>
      <point x="3612" y="-148" type="line"/>
    </contour>
    <contour>
      <point x="244" y="799" type="line"/>
      <point x="3612" y="799" type="line"/>
      <point x="3612" y="1438" type="line"/>
      <point x="569" y="1438" type="line"/>
      <point x="244" y="1112" type="line"/>
    </contour>
    <contour>
      <point x="248" y="803" type="line"/>
      <point x="248" y="1110" type="line"/>
      <point x="571" y="1434" type="line"/>
      <point x="3608" y="1434" type="line"/>
      <point x="3608" y="803" type="line"/>
    </contour>
  </outline>
</glyph>
<glyph name="C" format="2">
  <advance width="3591"/>
  <unicode hex="0043"/>
  <outline>
    <contour>
      <point x="3584" y="1602" type="line"/>
      <point x="712" y="1602" type="line"/>
      <point x="562" y="1451" type="line"/>
      <point x="562" y="1451" type="line"/>
      <point x="562" y="1451" type="line"/>
      <point x="80" y="966" type="line"/>
      <point x="80" y="-152" type="line"/>
      <point x="3437" y="-152" type="line"/>
      <point x="3588" y="-1" type="line"/>
      <point x="3588" y="333" type="line"/>
      <point x="3571" y="333" type="line"/>
      <point x="3420" y="182" type="line"/>
      <point x="3420" y="16" type="line"/>
      <point x="248" y="16" type="line"/>
      <point x="248" y="1109" type="line"/>
      <point x="572" y="1434" type="line"/>
      <point x="3416" y="1434" type="line"/>
      <point x="3416" y="819" type="line"/>
      <point x="3433" y="819" type="line"/>
      <point x="3584" y="970" type="line"/>
    </contour>
    <contour>
      <point x="244" y="1111" type="line"/>
      <point x="244" y="12" type="line"/>
      <point x="3424" y="12" type="line"/>
      <point x="3424" y="180" type="line"/>
      <point x="3573" y="329" type="line"/>
      <point x="3584" y="329" type="line"/>
      <point x="3584" y="1" type="line"/>
      <point x="3435" y="-148" type="line"/>
      <point x="84" y="-148" type="line"/>
      <point x="84" y="964" type="line"/>
      <point x="564" y="1449" type="line"/>
      <point x="714" y="1598" type="line"/>
      <point x="3580" y="1598" type="line"/>
      <point x="3580" y="972" type="line"/>
      <point x="3431" y="823" type="line"/>
      <point x="3420" y="823" type="line"/>
      <point x="3420" y="1438" type="line"/>
      <point x="570" y="1438" type="line"/>
    </contour>
  </outline>
</glyph>
<glyph name="D" format="2">
  <advance width="4106"/>
  <unicode hex="0044"/>
  <outline>
    <contour>
      <point x="4046" y="1602" type="line"/>
      <point x="376" y="1602" type="line"/>
      <point x="225" y="1451" type="line"/>
      <point x="225" y="-152" type="line"/>
      <point x="3415" y="-152" type="line"/>
      <point x="3895" y="326" type="line"/>
      <point x="3895" y="326" type="line"/>
      <point x="3895" y="326" type="line"/>
      <point x="4046" y="476" type="line"/>
    </contour>
    <contour>
      <point x="229" y="-148" type="line"/>
      <point x="229" y="1449" type="line"/>
      <point x="378" y="1598" type="line"/>
      <point x="4042" y="1598" type="line"/>
      <point x="4042" y="478" type="line"/>
      <point x="3893" y="328" type="line"/>
      <point x="3413" y="-148" type="line"/>
    </contour>
    <contour>
      <point x="3882" y="334" type="line"/>
      <point x="3882" y="1438" type="line"/>
      <point x="389" y="1438" type="line"/>
      <point x="389" y="12" type="line"/>
      <point x="3557" y="12" type="line"/>
    </contour>
    <contour>
      <point x="393" y="16" type="line"/>
      <point x="393" y="1434" type="line"/>
      <point x="3878" y="1434" type="line"/>
      <point x="3878" y="336" type="line"/>
      <point x="3555" y="16" type="line"/>
    </contour>
  </outline>
</glyph>
<glyph name="E" format="2">
  <advance width="3527"/>
  <unicode hex="0045"/>
  <outline>
    <contour>
      <point x="3523" y="1602" type="line"/>
      <point x="376" y="1602" type="line"/>
      <point x="225" y="1451" type="line"/>
      <point x="225" y="-152" type="line"/>
      <point x="3373" y="-152" type="line"/>
      <point x="3524" y="-1" type="line"/>
      <point x="3524" y="528" type="line"/>
      <point x="3507" y="528" type="line"/>
      <point x="3356" y="377" type="line"/>
      <point x="3356" y="15" type="line"/>
      <point x="393" y="15" type="line"/>
      <point x="393" y="642" type="line"/>
      <point x="3044" y="642" type="line"/>
      <point x="3195" y="793" type="line"/>
      <point x="3195" y="808" type="line"/>
      <point x="393" y="808" type="line"/>
      <point x="393" y="1435" type="line"/>
      <point x="3355" y="1435" type="line"/>
      <point x="3355" y="923" type="line"/>
      <point x="3372" y="923" type="line"/>
      <point x="3523" y="1074" type="line"/>
    </contour>
    <contour>
      <point x="389" y="646" type="line"/>
      <point x="389" y="11" type="line"/>
      <point x="3360" y="11" type="line"/>
      <point x="3360" y="375" type="line"/>
      <point x="3509" y="524" type="line"/>
      <point x="3520" y="524" type="line"/>
      <point x="3520" y="1" type="line"/>
      <point x="3371" y="-148" type="line"/>
      <point x="229" y="-148" type="line"/>
      <point x="229" y="1449" type="line"/>
      <point x="378" y="1598" type="line"/>
      <point x="3519" y="1598" type="line"/>
      <point x="3519" y="1076" type="line"/>
      <point x="3370" y="927" type="line"/>
      <point x="3359" y="927" type="line"/>
      <point x="3359" y="1439" type="line"/>
      <point x="389" y="1439" type="line"/>
      <point x="389" y="804" type="line"/>
      <point x="3191" y="804" type="line"/>
      <point x="3191" y="795" type="line"/>
      <point x="3042" y="646" type="line"/>
    </contour>
  </outline>
</glyph>
<glyph name="G" format="2">
  <advance width="3825"/>
  <unicode hex="0047"/>
  <outline>
    <contour>
      <point x="3822" y="1602" type="line"/>
      <point x="723" y="1602" type="line"/>
      <point x="231" y="1117" type="line"/>
      <point x="231" y="1117" type="line"/>
      <point x="231" y="1117" type="line"/>
      <point x="80" y="967" type="line"/>
      <point x="80" y="-152" type="line"/>
      <point x="3671" y="-152" type="line"/>
      <point x="3822" y="-1" type="line"/>
      <point x="3822" y="808" type="line"/>
      <point x="2122" y="808" type="line"/>
      <point x="1971" y="657" type="line"/>
      <point x="1971" y="641" type="line"/>
      <point x="3654" y="641" type="line"/>
      <point x="3654" y="15" type="line"/>
      <point x="248" y="15" type="line"/>
      <point x="248" y="1108" type="line"/>
      <point x="581" y="1435" type="line"/>
      <point x="3653" y="1435" type="line"/>
      <point x="3653" y="928" type="line"/>
      <point x="3671" y="928" type="line"/>
      <point x="3822" y="1079" type="line"/>
    </contour>
    <contour>
      <point x="244" y="1110" type="line"/>
      <point x="244" y="11" type="line"/>
      <point x="3658" y="11" type="line"/>
      <point x="3658" y="645" type="line"/>
      <point x="1975" y="645" type="line"/>
      <point x="1975" y="655" type="line"/>
      <point x="2124" y="804" type="line"/>
      <point x="3818" y="804" type="line"/>
      <point x="3818" y="1" type="line"/>
      <point x="3669" y="-148" type="line"/>
      <point x="84" y="-148" type="line"/>
      <point x="84" y="965" type="line"/>
      <point x="233" y="1115" type="line"/>
      <point x="725" y="1598" type="line"/>
      <point x="3818" y="1598" type="line"/>
      <point x="3818" y="1081" type="line"/>
      <point x="3669" y="932" type="line"/>
      <point x="3657" y="932" type="line"/>
      <point x="3657" y="1439" type="line"/>
      <point x="579" y="1439" type="line"/>
    </contour>
  </outline>
</glyph>
<glyph name="H" format="2">
  <advance width="4069"/>
  <unicode hex="0048"/>
  <outline>
    <contour>
      <point x="242" y="-152" type="line"/>
      <point x="393" y="-1" type="line"/>
      <point x="393" y="641" type="line"/>
      <point x="3696" y="641" type="line"/>
      <point x="3696" y="-152" type="line"/>
      <point x="3713" y="-152" type="line"/>
      <point x="3864" y="-1" type="line"/>
      <point x="3864" y="1602" type="line"/>
      <point x="3847" y="1602" type="line"/>
      <point x="3696" y="1451" type="line"/>
      <point x="3696" y="809" type="line"/>
      <point x="393" y="809" type="line"/>
      <point x="393" y="1602" type="line"/>
      <point x="376" y="1602" type="line"/>
      <point x="225" y="1451" type="line"/>
      <point x="225" y="-152" type="line"/>
    </contour>
    <contour>
      <point x="3700" y="645" type="line"/>
      <point x="389" y="645" type="line"/>
      <point x="389" y="1" type="line"/>
      <point x="240" y="-148" type="line"/>
      <point x="229" y="-148" type="line"/>
      <point x="229" y="1449" type="line"/>
      <point x="378" y="1598" type="line"/>
      <point x="389" y="1598" type="line"/>
      <point x="389" y="805" type="line"/>
      <point x="3700" y="805" type="line"/>
      <point x="3700" y="1449" type="line"/>
      <point x="3849" y="1598" type="line"/>
      <point x="3860" y="1598" type="line"/>
      <point x="3860" y="1" type="line"/>
      <point x="3711" y="-148" type="line"/>
      <point x="3700" y="-148" type="line"/>
    </contour>
  </outline>
</glyph>
<glyph name="O" format="2">
  <advance width="3964"/>
  <unicode hex="004F"/>
  <outline>
    <contour>
      <point x="562" y="1451" type="line"/>
      <point x="562" y="1451" type="line"/>
      <point x="562" y="1451" type="line"/>
      <point x="80" y="966" type="line"/>
      <point x="80" y="-152" type="line"/>
      <point x="3273" y="-152" type="line"/>
      <point x="3753" y="326" type="line"/>
      <point x="3753" y="326" type="line"/>
      <point x="3753" y="326" type="line"/>
      <point x="3904" y="476" type="line"/>
      <point x="3904" y="1602" type="line"/>
      <point x="712" y="1602" type="line"/>
    </contour>
    <contour>
      <point x="84" y="-148" type="line"/>
      <point x="84" y="964" type="line"/>
      <point x="564" y="1449" type="line"/>
      <point x="714" y="1598" type="line"/>
      <point x="3900" y="1598" type="line"/>
      <point x="3900" y="478" type="line"/>
      <point x="3751" y="328" type="line"/>
      <point x="3271" y="-148" type="line"/>
    </contour>
    <contour>
      <point x="3416" y="12" type="line"/>
      <point x="3740" y="333" type="line"/>
      <point x="3740" y="1438" type="line"/>
      <point x="570" y="1438" type="line"/>
      <point x="244" y="1111" type="line"/>
      <point x="244" y="12" type="line"/>
    </contour>
    <contour>
      <point x="248" y="16" type="line"/>
      <point x="248" y="1109" type="line"/>
      <point x="572" y="1434" type="line"/>
      <point x="3736" y="1434" type="line"/>
      <point x="3736" y="335" type="line"/>
      <point x="3414" y="16" type="line"/>
    </contour>
  </outline>
</glyph>
<glyph name="Q" format="2">
  <advance width="4109"/>
  <unicode hex="0051"/>
  <outline>
    <contour>
      <point x="562" y="1451" type="line"/>
      <point x="562" y="1451" type="line"/>
      <point x="562" y="1451" type="line"/>
      <point x="80" y="966" type="line"/>
      <point x="80" y="-152" type="line"/>
      <point x="1912" y="-152" type="line"/>
      <point x="1912" y="-540" type="line"/>
      <point x="1928" y="-540" type="line"/>
      <point x="2079" y="-389" type="line"/>
      <point x="2079" y="-152" type="line"/>
      <point x="3753" y="-152" type="line"/>
      <point x="3904" y="-1" type="line"/>
      <point x="3904" y="1602" type="line"/>
      <point x="712" y="1602" type="line"/>
    </contour>
    <contour>
      <point x="1916" y="-148" type="line"/>
      <point x="84" y="-148" type="line"/>
      <point x="84" y="964" type="line"/>
      <point x="564" y="1449" type="line"/>
      <point x="714" y="1598" type="line"/>
      <point x="3900" y="1598" type="line"/>
      <point x="3900" y="1" type="line"/>
      <point x="3751" y="-148" type="line"/>
      <point x="2075" y="-148" type="line"/>
      <point x="2075" y="-387" type="line"/>
      <point x="1926" y="-536" type="line"/>
      <point x="1916" y="-536" type="line"/>
    </contour>
    <contour>
      <point x="3740" y="12" type="line"/>
      <point x="3740" y="1438" type="line"/>
      <point x="570" y="1438" type="line"/>
      <point x="244" y="1112" type="line"/>
      <point x="244" y="12" type="line"/>
    </contour>
    <contour>
      <point x="248" y="16" type="line"/>
      <point x="248" y="1110" type="line"/>
      <point x="572" y="1434" type="line"/>
      <point x="3736" y="1434" type="line"/>
      <point x="3736" y="16" type="line"/>
    </contour>
  </outline>
</glyph>
<glyph name="R" format="2">
  <advance width="3796"/>
  <unicode hex="0052"/>
  <outline>
    <contour>
      <point x="242" y="-152" type="line"/>
      <point x="393" y="-1" type="line"/>
      <point x="393" y="587" type="line"/>
      <point x="3001" y="587" type="line"/>
      <point x="3494" y="365" type="line"/>
      <point x="3494" y="-152" type="line"/>
      <point x="3511" y="-152" type="line"/>
      <point x="3662" y="-1" type="line"/>
      <point x="3662" y="520" type="line"/>
      <point x="3513" y="587" type="line"/>
      <point x="3585" y="587" type="line"/>
      <point x="3736" y="738" type="line"/>
      <point x="3736" y="1602" type="line"/>
      <point x="376" y="1602" type="line"/>
      <point x="225" y="1451" type="line"/>
      <point x="225" y="-152" type="line"/>
    </contour>
    <contour>
      <point x="3495" y="591" type="line"/>
      <point x="3658" y="518" type="line"/>
      <point x="3658" y="1" type="line"/>
      <point x="3509" y="-148" type="line"/>
      <point x="3498" y="-148" type="line"/>
      <point x="3498" y="367" type="line"/>
      <point x="3001" y="591" type="line"/>
      <point x="389" y="591" type="line"/>
      <point x="389" y="1" type="line"/>
      <point x="240" y="-148" type="line"/>
      <point x="229" y="-148" type="line"/>
      <point x="229" y="1449" type="line"/>
      <point x="378" y="1598" type="line"/>
      <point x="3732" y="1598" type="line"/>
      <point x="3732" y="740" type="line"/>
      <point x="3583" y="591" type="line"/>
    </contour>
    <contour>
      <point x="3572" y="751" type="line"/>
      <point x="3572" y="1438" type="line"/>
      <point x="389" y="1438" type="line"/>
      <point x="389" y="751" type="line"/>
    </contour>
    <contour>
      <point x="393" y="755" type="line"/>
      <point x="393" y="1434" type="line"/>
      <point x="3568" y="1434" type="line"/>
      <point x="3568" y="755" type="line"/>
    </contour>
  </outline>
</glyph>
<glyph name="G.wide" format="2">
  <advance width="3933"/>
  <outline>
    <contour>
      <point x="562" y="1451" type="line"/>
      <point x="80" y="962" type="line"/>
      <point x="80" y="-152" type="line"/>
      <point x="3670" y="-152" type="line"/>
      <point x="3821" y="-1" type="line"/>
      <point x="3821" y="808" type="line"/>
      <point x="2595" y="808" type="line"/>
      <point x="2444" y="657" type="line"/>
      <point x="2444" y="642" type="line"/>
      <point x="3653" y="642" type="line"/>
      <point x="3653" y="15" type="line"/>
      <point x="248" y="15" type="line"/>
      <point x="248" y="1104" type="line"/>
      <point x="573" y="1435" type="line"/>
      <point x="3669" y="1435" type="line"/>
      <point x="3820" y="1586" type="line"/>
      <point x="3820" y="1602" type="line"/>
      <point x="712" y="1602" type="line"/>
      <point x="562" y="1451" type="line"/>
      <point x="562" y="1451" type="line"/>
    </contour>
    <contour>
      <point x="244" y="1106" type="line"/>
      <point x="244" y="11" type="line"/>
      <point x="3657" y="11" type="line"/>
      <point x="3657" y="646" type="line"/>
      <point x="2448" y="646" type="line"/>
      <point x="2448" y="655" type="line"/>
      <point x="2597" y="804" type="line"/>
      <point x="3817" y="804" type="line"/>
      <point x="3817" y="1" type="line"/>
      <point x="3668" y="-148" type="line"/>
      <point x="84" y="-148" type="line"/>
      <point x="84" y="960" type="line"/>
      <point x="564" y="1449" type="line"/>
      <point x="714" y="1598" type="line"/>
      <point x="3816" y="1598" type="line"/>
      <point x="3816" y="1588" type="line"/>
      <point x="3667" y="1439" type="line"/>
      <point x="571" y="1439" type="line"/>
    </contour>
  </outline>
</glyph>
<glyph name="I.narrow" format="2">
  <advance width="598"/>
  <outline>
    <contour>
      <point x="225" y="1449" type="line"/>
      <point x="225" y="-150" type="line"/>
      <point x="242" y="-150" type="line"/>
      <point x="393" y="1" type="line"/>
      <point x="393" y="1600" type="line"/>
      <point x="376" y="1600" type="line"/>
    </contour>
    <contour>
      <point x="229" y="-146" type="line"/>
      <point x="229" y="1447" type="line"/>
      <point x="378" y="1596" type="line"/>
      <point x="389" y="1596" type="line"/>
      <point x="389" y="3" type="line"/>
      <point x="240" y="-146" type="line"/>
    </contour>
  </outline>
</glyph>
<glyph name="L.wide" format="2">
  <advance width="3496"/>
  <outline>
    <contour>
      <point x="3493" y="-1" type="line"/>
      <point x="3493" y="16" type="line"/>
      <point x="473" y="16" type="line"/>
      <point x="473" y="1602" type="line"/>
      <point x="456" y="1602" type="line"/>
      <point x="305" y="1451" type="line"/>
      <point x="305" y="-152" type="line"/>
      <point x="3342" y="-152" type="line"/>
    </contour>
    <contour>
      <point x="469" y="12" type="line"/>
      <point x="3489" y="12" type="line"/>
      <point x="3489" y="1" type="line"/>
      <point x="3340" y="-148" type="line"/>
      <point x="309" y="-148" type="line"/>
      <point x="309" y="1449" type="line"/>
      <point x="458" y="1598" type="line"/>
      <point x="469" y="1598" type="line"/>
    </contour>
  </outline>
</glyph>
<glyph name="M.narrow" format="2">
  <advance width="4952"/>
  <outline>
    <contour>
      <point x="242" y="-152" type="line"/>
      <point x="393" y="-1" type="line"/>
      <point x="393" y="1104" type="line"/>
      <point x="729" y="1434" type="line"/>
      <point x="2474" y="1434" type="line"/>
      <point x="2474" y="-150" type="line"/>
      <point x="2491" y="-150" type="line"/>
      <point x="2642" y="1" type="line"/>
      <point x="2642" y="1434" type="line"/>
      <point x="4724" y="1434" type="line"/>
      <point x="4724" y="-152" type="line"/>
      <point x="4741" y="-152" type="line"/>
      <point x="4892" y="-1" type="line"/>
      <point x="4892" y="1602" type="line"/>
      <point x="868" y="1602" type="line"/>
      <point x="376" y="1114" type="line"/>
      <point x="376" y="1114" type="line"/>
      <point x="376" y="1114" type="line"/>
      <point x="225" y="964" type="line"/>
      <point x="225" y="-152" type="line"/>
    </contour>
    <contour>
      <point x="4728" y="1438" type="line"/>
      <point x="2638" y="1438" type="line"/>
      <point x="2638" y="3" type="line"/>
      <point x="2489" y="-146" type="line"/>
      <point x="2478" y="-146" type="line"/>
      <point x="2478" y="1438" type="line"/>
      <point x="727" y="1438" type="line"/>
      <point x="389" y="1106" type="line"/>
      <point x="389" y="1" type="line"/>
      <point x="240" y="-148" type="line"/>
      <point x="229" y="-148" type="line"/>
      <point x="229" y="962" type="line"/>
      <point x="378" y="1112" type="line"/>
      <point x="870" y="1598" type="line"/>
      <point x="4888" y="1598" type="line"/>
      <point x="4888" y="1" type="line"/>
      <point x="4739" y="-148" type="line"/>
      <point x="4728" y="-148" type="line"/>
    </contour>
  </outline>
</glyph>
<glyph name="R.wide" format="2">
  <advance width="3912"/>
  <outline>
    <contour>
      <point x="242" y="-152" type="line"/>
      <point x="393" y="-1" type="line"/>
      <point x="393" y="587" type="line"/>
      <point x="2998" y="587" type="line"/>
      <point x="3495" y="-152" type="line"/>
      <point x="3511" y="-152" type="line"/>
      <point x="3663" y="0" type="line"/>
      <point x="3269" y="587" type="line"/>
      <point x="3585" y="587" type="line"/>
      <point x="3736" y="738" type="line"/>
      <point x="3736" y="1602" type="line"/>
      <point x="376" y="1602" type="line"/>
      <point x="225" y="1451" type="line"/>
      <point x="225" y="-152" type="line"/>
    </contour>
    <contour>
      <point x="3000" y="591" type="line"/>
      <point x="389" y="591" type="line"/>
      <point x="389" y="1" type="line"/>
      <point x="240" y="-148" type="line"/>
      <point x="229" y="-148" type="line"/>
      <point x="229" y="1449" type="line"/>
      <point x="378" y="1598" type="line"/>
      <point x="3732" y="1598" type="line"/>
      <point x="3732" y="740" type="line"/>
      <point x="3583" y="591" type="line"/>
      <point x="3261" y="591" type="line"/>
      <point x="3657" y="0" type="line"/>
      <point x="3509" y="-148" type="line"/>
      <point x="3497" y="-148" type="line"/>
    </contour>
    <contour>
      <point x="3572" y="751" type="line"/>
      <point x="3572" y="1438" type="line"/>
      <point x="389" y="1438" type="line"/>
      <point x="389" y="751" type="line"/>
    </contour>
    <contour>
      <point x="393" y="755" type="line"/>
      <point x="393" y="1434" type="line"/>
      <point x="3568" y="1434" type="line"/>
      <point x="3568" y="755" type="line"/>
    </contour>
  </outline>
</glyph>
<glyph name="S.wide" format="2">
  <advance width="3592"/>
  <outline>
    <contour>
      <point x="505" y="1451" type="line"/>
      <point x="23" y="966" type="line"/>
      <point x="23" y="642" type="line"/>
      <point x="3421" y="642" type="line"/>
      <point x="3421" y="335" type="line"/>
      <point x="3098" y="15" type="line"/>
      <point x="176" y="15" type="line"/>
      <point x="25" y="-136" type="line"/>
      <point x="25" y="-152" type="line"/>
      <point x="2958" y="-152" type="line"/>
      <point x="3438" y="326" type="line"/>
      <point x="3438" y="326" type="line"/>
      <point x="3438" y="326" type="line"/>
      <point x="3589" y="476" type="line"/>
      <point x="3589" y="809" type="line"/>
      <point x="191" y="809" type="line"/>
      <point x="191" y="1109" type="line"/>
      <point x="516" y="1435" type="line"/>
      <point x="3424" y="1435" type="line"/>
      <point x="3575" y="1586" type="line"/>
      <point x="3575" y="1602" type="line"/>
      <point x="655" y="1602" type="line"/>
      <point x="505" y="1451" type="line"/>
      <point x="505" y="1451" type="line"/>
    </contour>
    <contour>
      <point x="3100" y="11" type="line"/>
      <point x="3425" y="333" type="line"/>
      <point x="3425" y="646" type="line"/>
      <point x="27" y="646" type="line"/>
      <point x="27" y="964" type="line"/>
      <point x="507" y="1449" type="line"/>
      <point x="657" y="1598" type="line"/>
      <point x="3571" y="1598" type="line"/>
      <point x="3571" y="1588" type="line"/>
      <point x="3422" y="1439" type="line"/>
      <point x="514" y="1439" type="line"/>
      <point x="187" y="1111" type="line"/>
      <point x="187" y="805" type="line"/>
      <point x="3585" y="805" type="line"/>
      <point x="3585" y="478" type="line"/>
      <point x="3436" y="328" type="line"/>
      <point x="2956" y="-148" type="line"/>
      <point x="29" y="-148" type="line"/>
      <point x="29" y="-138" type="line"/>
      <point x="178" y="11" type="line"/>
    </contour>
  </outline>
</glyph>
<glyph name="Z.wide" format="2">
  <advance width="3578"/>
  <outline>
    <contour>
      <point x="3575" y="-1" type="line"/>
      <point x="3575" y="15" type="line"/>
      <point x="208" y="15" type="line"/>
      <point x="208" y="396" type="line"/>
      <point x="3382" y="1116" type="line"/>
      <point x="3533" y="1267" type="line"/>
      <point x="3533" y="1602" type="line"/>
      <point x="174" y="1602" type="line"/>
      <point x="23" y="1451" type="line"/>
      <point x="23" y="1435" type="line"/>
      <point x="3362" y="1435" type="line"/>
      <point x="3362" y="1243" type="line"/>
      <point x="190" y="525" type="line"/>
      <point x="39" y="374" type="line"/>
      <point x="39" y="-152" type="line"/>
      <point x="3424" y="-152" type="line"/>
    </contour>
    <contour>
      <point x="204" y="400" type="line"/>
      <point x="204" y="11" type="line"/>
      <point x="3571" y="11" type="line"/>
      <point x="3571" y="1" type="line"/>
      <point x="3422" y="-148" type="line"/>
      <point x="43" y="-148" type="line"/>
      <point x="43" y="372" type="line"/>
      <point x="192" y="521" type="line"/>
      <point x="3366" y="1239" type="line"/>
      <point x="3366" y="1439" type="line"/>
      <point x="27" y="1439" type="line"/>
      <point x="27" y="1449" type="line"/>
      <point x="176" y="1598" type="line"/>
      <point x="3529" y="1598" type="line"/>
      <point x="3529" y="1269" type="line"/>
      <point x="3380" y="1120" type="line"/>
    </contour>
  </outline>
</glyph>
<glyph name="five.wide" format="2">
  <advance width="3689"/>
  <outline>
    <contour>
      <point x="3686" y="-1" type="line"/>
      <point x="3686" y="808" type="line"/>
      <point x="191" y="808" type="line"/>
      <point x="191" y="1435" type="line"/>
      <point x="3535" y="1435" type="line"/>
      <point x="3686" y="1586" type="line"/>
      <point x="3686" y="1602" type="line"/>
      <point x="174" y="1602" type="line"/>
      <point x="23" y="1451" type="line"/>
      <point x="23" y="642" type="line"/>
      <point x="3518" y="642" type="line"/>
      <point x="3518" y="15" type="line"/>
      <point x="175" y="15" type="line"/>
      <point x="24" y="-136" type="line"/>
      <point x="24" y="-152" type="line"/>
      <point x="3535" y="-152" type="line"/>
    </contour>
    <contour>
      <point x="3522" y="11" type="line"/>
      <point x="3522" y="646" type="line"/>
      <point x="27" y="646" type="line"/>
      <point x="27" y="1449" type="line"/>
      <point x="176" y="1598" type="line"/>
      <point x="3682" y="1598" type="line"/>
      <point x="3682" y="1588" type="line"/>
      <point x="3533" y="1439" type="line"/>
      <point x="187" y="1439" type="line"/>
      <point x="187" y="804" type="line"/>
      <point x="3682" y="804" type="line"/>
      <point x="3682" y="1" type="line"/>
      <point x="3533" y="-148" type="line"/>
      <point x="28" y="-148" type="line"/>
      <point x="28" y="-138" type="line"/>
      <point x="177" y="11" type="line"/>
    </contour>
  </outline>
</glyph>
<glyph name="nine.wide" format="2">
  <advance width="4166"/>
  <outline>
    <contour>
      <point x="3883" y="-1" type="line"/>
      <point x="3883" y="1602" type="line"/>
      <point x="394" y="1602" type="line"/>
      <point x="243" y="1451" type="line"/>
      <point x="243" y="642" type="line"/>
      <point x="3715" y="642" type="line"/>
      <point x="3715" y="15" type="line"/>
      <point x="395" y="15" type="line"/>
      <point x="244" y="-136" type="line"/>
      <point x="244" y="-152" type="line"/>
      <point x="3732" y="-152" type="line"/>
    </contour>
    <contour>
      <point x="3719" y="11" type="line"/>
      <point x="3719" y="646" type="line"/>
      <point x="247" y="646" type="line"/>
      <point x="247" y="1449" type="line"/>
      <point x="396" y="1598" type="line"/>
      <point x="3879" y="1598" type="line"/>
      <point x="3879" y="1" type="line"/>
      <point x="3730" y="-148" type="line"/>
      <point x="248" y="-148" type="line"/>
      <point x="248" y="-138" type="line"/>
      <point x="397" y="11" type="line"/>
    </contour>
    <contour>
      <point x="3719" y="804" type="line"/>
      <point x="3719" y="1439" type="line"/>
      <point x="407" y="1439" type="line"/>
      <point x="407" y="804" type="line"/>
    </contour>
    <contour>
      <point x="411" y="808" type="line"/>
      <point x="411" y="1435" type="line"/>
      <point x="3715" y="1435" type="line"/>
      <point x="3715" y="808" type="line"/>
    </contour>
  </outline>
</glyph>
